<mxfile host="app.diagrams.net" agent="Mozilla/5.0 (Windows NT 10.0; Win64; x64) AppleWebKit/537.36 (KHTML, like Gecko) Chrome/132.0.0.0 Safari/537.36 OPR/117.0.0.0" version="26.2.7">
  <diagram name="Página-1" id="Y-nbTuolRSAYvZ__T27V">
    <mxGraphModel dx="833" dy="1622" grid="1" gridSize="10" guides="1" tooltips="1" connect="1" arrows="1" fold="1" page="1" pageScale="1" pageWidth="827" pageHeight="1169" math="0" shadow="0">
      <root>
        <mxCell id="0" />
        <mxCell id="1" parent="0" />
        <mxCell id="MFBtD1ppDeCPnM8-i1bU-7" value="" style="edgeStyle=orthogonalEdgeStyle;rounded=0;orthogonalLoop=1;jettySize=auto;html=1;" edge="1" parent="1" source="MFBtD1ppDeCPnM8-i1bU-2" target="MFBtD1ppDeCPnM8-i1bU-6">
          <mxGeometry relative="1" as="geometry" />
        </mxCell>
        <mxCell id="MFBtD1ppDeCPnM8-i1bU-2" value="Início" style="rounded=1;whiteSpace=wrap;html=1;fontSize=12;glass=0;strokeWidth=1;shadow=0;" vertex="1" parent="1">
          <mxGeometry x="330" y="-1070" width="60" height="40" as="geometry" />
        </mxCell>
        <mxCell id="MFBtD1ppDeCPnM8-i1bU-3" value="Fim" style="rounded=1;whiteSpace=wrap;html=1;fontSize=12;glass=0;strokeWidth=1;shadow=0;" vertex="1" parent="1">
          <mxGeometry x="660" y="-320" width="60" height="40" as="geometry" />
        </mxCell>
        <mxCell id="MFBtD1ppDeCPnM8-i1bU-9" value="" style="edgeStyle=orthogonalEdgeStyle;rounded=0;orthogonalLoop=1;jettySize=auto;html=1;" edge="1" parent="1" source="MFBtD1ppDeCPnM8-i1bU-6" target="MFBtD1ppDeCPnM8-i1bU-8">
          <mxGeometry relative="1" as="geometry" />
        </mxCell>
        <mxCell id="MFBtD1ppDeCPnM8-i1bU-6" value="&lt;div&gt;&lt;br&gt;&lt;/div&gt;&lt;div&gt;&lt;br&gt;&lt;/div&gt;Ler n1" style="shape=manualInput;whiteSpace=wrap;html=1;" vertex="1" parent="1">
          <mxGeometry x="315" y="-940" width="90" height="60" as="geometry" />
        </mxCell>
        <mxCell id="MFBtD1ppDeCPnM8-i1bU-11" value="" style="edgeStyle=orthogonalEdgeStyle;rounded=0;orthogonalLoop=1;jettySize=auto;html=1;" edge="1" parent="1" source="MFBtD1ppDeCPnM8-i1bU-8" target="MFBtD1ppDeCPnM8-i1bU-10">
          <mxGeometry relative="1" as="geometry" />
        </mxCell>
        <mxCell id="MFBtD1ppDeCPnM8-i1bU-8" value="&lt;div&gt;&lt;br&gt;&lt;/div&gt;&lt;div&gt;&lt;br&gt;&lt;/div&gt;Ler n2" style="shape=manualInput;whiteSpace=wrap;html=1;" vertex="1" parent="1">
          <mxGeometry x="315" y="-800" width="90" height="60" as="geometry" />
        </mxCell>
        <mxCell id="MFBtD1ppDeCPnM8-i1bU-13" value="" style="edgeStyle=orthogonalEdgeStyle;rounded=0;orthogonalLoop=1;jettySize=auto;html=1;" edge="1" parent="1" source="MFBtD1ppDeCPnM8-i1bU-10" target="MFBtD1ppDeCPnM8-i1bU-12">
          <mxGeometry relative="1" as="geometry" />
        </mxCell>
        <mxCell id="MFBtD1ppDeCPnM8-i1bU-10" value="media = (n1 + n2)/2" style="whiteSpace=wrap;html=1;" vertex="1" parent="1">
          <mxGeometry x="300" y="-660" width="120" height="60" as="geometry" />
        </mxCell>
        <mxCell id="MFBtD1ppDeCPnM8-i1bU-15" value="" style="edgeStyle=orthogonalEdgeStyle;rounded=0;orthogonalLoop=1;jettySize=auto;html=1;" edge="1" parent="1" source="MFBtD1ppDeCPnM8-i1bU-12" target="MFBtD1ppDeCPnM8-i1bU-14">
          <mxGeometry relative="1" as="geometry" />
        </mxCell>
        <mxCell id="MFBtD1ppDeCPnM8-i1bU-16" value="Verdadeiro" style="edgeLabel;html=1;align=center;verticalAlign=middle;resizable=0;points=[];" vertex="1" connectable="0" parent="MFBtD1ppDeCPnM8-i1bU-15">
          <mxGeometry x="-0.08" y="-1" relative="1" as="geometry">
            <mxPoint as="offset" />
          </mxGeometry>
        </mxCell>
        <mxCell id="MFBtD1ppDeCPnM8-i1bU-18" value="" style="edgeStyle=orthogonalEdgeStyle;rounded=0;orthogonalLoop=1;jettySize=auto;html=1;" edge="1" parent="1" source="MFBtD1ppDeCPnM8-i1bU-12" target="MFBtD1ppDeCPnM8-i1bU-17">
          <mxGeometry relative="1" as="geometry" />
        </mxCell>
        <mxCell id="MFBtD1ppDeCPnM8-i1bU-19" value="Falso" style="edgeLabel;html=1;align=center;verticalAlign=middle;resizable=0;points=[];" vertex="1" connectable="0" parent="MFBtD1ppDeCPnM8-i1bU-18">
          <mxGeometry x="-0.02" y="-2" relative="1" as="geometry">
            <mxPoint as="offset" />
          </mxGeometry>
        </mxCell>
        <mxCell id="MFBtD1ppDeCPnM8-i1bU-12" value="media &amp;gt;= 7" style="rhombus;whiteSpace=wrap;html=1;" vertex="1" parent="1">
          <mxGeometry x="320" y="-530" width="80" height="80" as="geometry" />
        </mxCell>
        <mxCell id="MFBtD1ppDeCPnM8-i1bU-22" style="edgeStyle=orthogonalEdgeStyle;rounded=0;orthogonalLoop=1;jettySize=auto;html=1;entryX=0.5;entryY=0;entryDx=0;entryDy=0;" edge="1" parent="1" source="MFBtD1ppDeCPnM8-i1bU-14" target="MFBtD1ppDeCPnM8-i1bU-20">
          <mxGeometry relative="1" as="geometry" />
        </mxCell>
        <mxCell id="MFBtD1ppDeCPnM8-i1bU-14" value="&quot;Aprovado por média&quot; media" style="shape=display;whiteSpace=wrap;html=1;" vertex="1" parent="1">
          <mxGeometry x="490" y="-520" width="100" height="60" as="geometry" />
        </mxCell>
        <mxCell id="MFBtD1ppDeCPnM8-i1bU-21" value="" style="edgeStyle=orthogonalEdgeStyle;rounded=0;orthogonalLoop=1;jettySize=auto;html=1;" edge="1" parent="1" source="MFBtD1ppDeCPnM8-i1bU-17" target="MFBtD1ppDeCPnM8-i1bU-20">
          <mxGeometry relative="1" as="geometry" />
        </mxCell>
        <mxCell id="MFBtD1ppDeCPnM8-i1bU-17" value="&quot;Não aprovado por média&quot; media" style="shape=display;whiteSpace=wrap;html=1;" vertex="1" parent="1">
          <mxGeometry x="290" y="-330" width="140" height="60" as="geometry" />
        </mxCell>
        <mxCell id="MFBtD1ppDeCPnM8-i1bU-23" value="" style="edgeStyle=orthogonalEdgeStyle;rounded=0;orthogonalLoop=1;jettySize=auto;html=1;" edge="1" parent="1" source="MFBtD1ppDeCPnM8-i1bU-20" target="MFBtD1ppDeCPnM8-i1bU-3">
          <mxGeometry relative="1" as="geometry" />
        </mxCell>
        <mxCell id="MFBtD1ppDeCPnM8-i1bU-20" value="" style="ellipse;whiteSpace=wrap;html=1;" vertex="1" parent="1">
          <mxGeometry x="520" y="-320" width="40" height="40" as="geometry" />
        </mxCell>
      </root>
    </mxGraphModel>
  </diagram>
</mxfile>
